HIERARCHY
ROOT hip
{
  OFFSET 0 0 0
  CHANNELS 6 Xposition Yposition Zposition Zrotation Yrotation Xrotation
  JOINT abdomen
  {
    OFFSET 0 20.6881 -0.73152
    CHANNELS 3 Zrotation Xrotation Yrotation
    JOINT chest
    {
      OFFSET 0 11.7043 -0.48768
      CHANNELS 3 Zrotation Xrotation Yrotation
      JOINT neck
      {
        OFFSET 0 22.1894 -2.19456
        CHANNELS 3 Zrotation Xrotation Yrotation
        JOINT head
        {
          OFFSET -0.24384 7.07133 1.2192
          CHANNELS 3 Zrotation Xrotation Yrotation
          JOINT leftEye
          {
            OFFSET 4.14528 8.04674 8.04672
            CHANNELS 3 Zrotation Xrotation Yrotation
            End Site
            {
              OFFSET 1 0 0
            }
          }
          JOINT rightEye
          {
            OFFSET -3.6576 8.04674 8.04672
            CHANNELS 3 Zrotation Xrotation Yrotation
            End Site
            {
              OFFSET 1 0 0
            }
          }
        }
      }
      JOINT rCollar
      {
        OFFSET -2.68224 19.2634 -4.8768
        CHANNELS 3 Zrotation Xrotation Yrotation
        JOINT rShldr
        {
          OFFSET -8.77824 -1.95073 1.46304
          CHANNELS 3 Zrotation Xrotation Yrotation
          JOINT rForeArm
          {
            OFFSET -28.1742 -1.7115 0.48768
            CHANNELS 3 Zrotation Xrotation Yrotation
            JOINT rHand
            {
              OFFSET -22.5879 0.773209 7.07136
              CHANNELS 3 Zrotation Xrotation Yrotation
              JOINT rThumb1
              {
                OFFSET -1.2192 -0.487915 3.41376
                CHANNELS 3 Zrotation Xrotation Yrotation
                JOINT rThumb2
                {
                  OFFSET -3.37035 -0.52449 3.41376
                  CHANNELS 3 Zrotation Xrotation Yrotation
                  End Site
                  {
                    OFFSET -1.78271 -1.18214 1.43049
                  }
                }
              }
              JOINT rIndex1
              {
                OFFSET -7.75947 0.938293 5.60832
                CHANNELS 3 Zrotation Xrotation Yrotation
                JOINT rIndex2
                {
                  OFFSET -2.54057 -0.884171 1.56538
                  CHANNELS 3 Zrotation Xrotation Yrotation
                  End Site
                  {
                    OFFSET -1.62519 -0.234802 1.16502
                  }
                }
              }
              JOINT rMid1
              {
                OFFSET -8.24714 1.18213 3.41376
                CHANNELS 3 Zrotation Xrotation Yrotation
                JOINT rMid2
                {
                  OFFSET -3.10165 -0.590103 1.0647
                  CHANNELS 3 Zrotation Xrotation Yrotation
                  End Site
                  {
                    OFFSET -2.48547 -0.328903 0.83742
                  }
                }
              }
              JOINT rRing1
              {
                OFFSET -8.82822 0.546677 1.51678
                CHANNELS 3 Zrotation Xrotation Yrotation
                JOINT rRing2
                {
                  OFFSET -2.60934 -0.819778 -0.0198488
                  CHANNELS 3 Zrotation Xrotation Yrotation
                  End Site
                  {
                    OFFSET -2.33842 -0.294052 0.168128
                  }
                }
              }
              JOINT rPinky1
              {
                OFFSET -8.27202 -0.0477905 -0.4584
                CHANNELS 3 Zrotation Xrotation Yrotation
                JOINT rPinky2
                {
                  OFFSET -1.82734 -0.647385 -0.700984
                  CHANNELS 3 Zrotation Xrotation Yrotation
                  End Site
                  {
                    OFFSET -1.69225 -0.51767 -0.607171
                  }
                }
              }
            }
          }
        }
      }
      JOINT lCollar
      {
        OFFSET 2.68224 19.2634 -4.8768
        CHANNELS 3 Zrotation Xrotation Yrotation
        JOINT lShldr
        {
          OFFSET 8.77824 -1.95073 1.46304
          CHANNELS 3 Zrotation Xrotation Yrotation
          JOINT lForeArm
          {
            OFFSET 28.1742 -1.7115 0.48768
            CHANNELS 3 Zrotation Xrotation Yrotation
            JOINT lHand
            {
              OFFSET 22.5879 0.773209 7.07136
              CHANNELS 3 Zrotation Xrotation Yrotation
              JOINT lThumb1
              {
                OFFSET 1.2192 -0.487915 3.41376
                CHANNELS 3 Zrotation Xrotation Yrotation
                JOINT lThumb2
                {
                  OFFSET 3.37035 -0.52449 3.41376
                  CHANNELS 3 Zrotation Xrotation Yrotation
                  End Site
                  {
                    OFFSET 1.78271 -1.18214 1.43049
                  }
                }
              }
              JOINT lIndex1
              {
                OFFSET 7.75947 0.938293 5.60832
                CHANNELS 3 Zrotation Xrotation Yrotation
                JOINT lIndex2
                {
                  OFFSET 2.54057 -0.884171 1.56538
                  CHANNELS 3 Zrotation Xrotation Yrotation
                  End Site
                  {
                    OFFSET 1.62519 -0.234802 1.16502
                  }
                }
              }
              JOINT lMid1
              {
                OFFSET 8.24714 1.18213 3.41376
                CHANNELS 3 Zrotation Xrotation Yrotation
                JOINT lMid2
                {
                  OFFSET 3.10165 -0.590103 1.0647
                  CHANNELS 3 Zrotation Xrotation Yrotation
                  End Site
                  {
                    OFFSET 2.48547 -0.328903 0.83742
                  }
                }
              }
              JOINT lRing1
              {
                OFFSET 8.82822 0.546677 1.51678
                CHANNELS 3 Zrotation Xrotation Yrotation
                JOINT lRing2
                {
                  OFFSET 2.60934 -0.819778 -0.0198488
                  CHANNELS 3 Zrotation Xrotation Yrotation
                  End Site
                  {
                    OFFSET 2.33842 -0.294052 0.168128
                  }
                }
              }
              JOINT lPinky1
              {
                OFFSET 8.27202 -0.0477905 -0.4584
                CHANNELS 3 Zrotation Xrotation Yrotation
                JOINT lPinky2
                {
                  OFFSET 1.82734 -0.647385 -0.700984
                  CHANNELS 3 Zrotation Xrotation Yrotation
                  End Site
                  {
                    OFFSET 1.69225 -0.51767 -0.607171
                  }
                }
              }
            }
          }
        }
      }
    }
  }
  JOINT rButtock
  {
    OFFSET -8.77824 4.35084 1.2192
    CHANNELS 3 Zrotation Xrotation Yrotation
    JOINT rThigh
    {
      OFFSET 0 -1.70687 -2.19456
      CHANNELS 3 Zrotation Xrotation Yrotation
      JOINT rShin
      {
        OFFSET 0 -36.8199 0.73152
        CHANNELS 3 Zrotation Xrotation Yrotation
        JOINT rFoot
        {
          OFFSET 0.73152 -45.1104 -5.12064
          CHANNELS 3 Zrotation Xrotation Yrotation
          End Site
          {
            OFFSET -1.1221 -3.69964 12.103
          }
        }
      }
    }
  }
  JOINT lButtock
  {
    OFFSET 8.77824 4.35084 1.2192
    CHANNELS 3 Zrotation Xrotation Yrotation
    JOINT lThigh
    {
      OFFSET 0 -1.70687 -2.19456
      CHANNELS 3 Zrotation Xrotation Yrotation
      JOINT lShin
      {
        OFFSET 0 -36.8199 0.73152
        CHANNELS 3 Zrotation Xrotation Yrotation
        JOINT lFoot
        {
          OFFSET -0.73152 -45.1104 -5.12064
          CHANNELS 3 Zrotation Xrotation Yrotation
          End Site
          {
            OFFSET 1.1221 -3.69964 12.103
          }
        }
      }
    }
  }
}
MOTION
Frames:	9
Frame Time:	0.00833333
-8.13173 83.5688 12.6473 0.0 0.0 0.0 -2.45638 6.64429e-06 -0.0664203 -0.677105 0.010913 -0.117188 -3.22088e-14 7.95139e-16 5.2181e-16 -9.64106e-14 3.18055e-15 1.61357e-15 -0.0 0.0 0.0 -0.0 0.0 0.0 -1.64513e-14 -3.88251e-19 3.47873e-16 -3.36466e-13 -3.72721e-16 5.76476e-15 -5.82032e-12 1.74334e-12 1.59028e-13 -6.6767e-11 -1.76133e-12 9.89153e-13 -1.57461e-10 -3.30851e-14 2.51264e-12 -2.71931e-10 -5.40694e-14 4.34305e-12 -1.57458e-10 -3.65764e-14 2.49992e-12 7.73091 5.47488 0.417314 -1.57462e-10 -3.34952e-14 2.50946e-12 2.90554 0.965183 0.102902 -1.57462e-10 -3.32964e-14 2.51105e-12 10.2786 0.731801 0.0259123 -1.57468e-10 -2.94201e-14 2.52536e-12 2.22167 -0.733487 -0.20892 -1.6548e-14 -3.88251e-19 1.49089e-16 -3.39998e-13 -1.86361e-16 3.77691e-15 -5.85356e-12 -1.73877e-12 1.68569e-13 -6.67409e-11 1.73092e-12 9.89153e-13 -1.5747e-10 -1.50022e-14 2.519e-12 -2.71927e-10 -2.8625e-14 4.34384e-12 -1.57472e-10 -1.63003e-14 2.53172e-12 -7.73091 5.47488 -0.417314 -1.57467e-10 -1.55052e-14 2.519e-12 -2.90554 0.965183 -0.102902 -1.57471e-10 -1.51076e-14 2.51264e-12 -10.2786 0.731801 -0.0259123 -1.5746e-10 -1.15295e-14 2.49992e-12 -2.22167 -0.733487 0.20892 -2.03217e-16 0.0 -3.88251e-19 -1.38418 -1.93007 0.00584749 -0.00880942 -2.07862 -0.0724914 -0.480567 3.99895 0.135674 2.03217e-16 0.0 3.88251e-19 -2.35064 -8.1906 0.245968 -0.00624701 9.26116 -0.160003 0.527414 -1.0802 -0.0374227
-7.93673 81.6373 7.39163 -171.705 68.8844 -153.241 -2.33278 -1.18035 2.6348 -0.787462 -2.70654 0.721686 -1.15615 0.876932 0.995309 3.73683 -3.2623 2.73214 -0.0 0.0 0.0 -0.0 0.0 0.0 -3.63141e-14 -3.24538e-13 -2.63582e-13 14.3416 19.5836 8.68759 0.617298 16.584 -40.6152 4.79145e-05 -0.153957 -0.021637 -6.11791e-10 -5.89277e-09 -1.77895e-09 -1.05305e-09 -1.01852e-08 -3.07761e-09 -6.1179e-10 -5.89277e-09 -1.77897e-09 7.73091 5.47488 0.417314 -6.11793e-10 -5.89277e-09 -1.77895e-09 2.90554 0.965183 0.102902 -6.11791e-10 -5.89277e-09 -1.77895e-09 10.2786 0.731801 0.0259123 -6.11798e-10 -5.89276e-09 -1.77894e-09 2.22167 -0.733487 -0.20892 -3.64086e-14 -3.24539e-13 -2.6381e-13 -15.5433 14.5365 -3.01473 -2.07071 15.1125 41.9673 -0.012357 -2.46658 0.345496 -2.99532e-10 -1.15641e-11 1.562e-10 -5.1098e-10 -1.99346e-11 2.67382e-10 -2.99536e-10 -1.15639e-11 1.56212e-10 -7.73091 5.47488 -0.417314 -2.99531e-10 -1.15656e-11 1.56199e-10 -2.90554 0.965183 -0.102902 -2.99534e-10 -1.15651e-11 1.56195e-10 -10.2786 0.731801 -0.0259123 -2.99524e-10 -1.15616e-11 1.56184e-10 -2.22167 -0.733487 0.20892 -2.03217e-16 0.0 -3.88251e-19 -0.566971 -8.82189 -1.01402 -0.0143756 4.1607 0.0410263 -0.951968 0.0516585 -5.52699 2.03217e-16 0.0 3.88251e-19 1.05044 -16.085 -5.93135 -0.0129027 12.9546 -0.17227 0.670259 -2.13517 3.62787
-7.32346 82.0217 7.06545 -172.109 68.7949 -154.088 -2.09514 -2.38811 5.49583 -0.817419 -5.58696 1.61525 -2.41931 1.79914 2.04952 8.04074 -6.70888 5.65779 -0.0 0.0 0.0 -0.0 0.0 0.0 -5.80162e-14 -6.81128e-13 -5.61359e-13 21.5661 38.6416 21.7288 16.5521 7.3422 -82.3491 -2.82703e-05 -0.318012 -0.0446937 -1.12135e-09 -1.25223e-08 -3.79361e-09 -1.92902e-09 -2.16439e-08 -6.56306e-09 -1.12135e-09 -1.25223e-08 -3.79362e-09 7.73091 5.47488 0.417314 -1.12135e-09 -1.25223e-08 -3.79361e-09 2.90554 0.965183 0.102902 -1.12135e-09 -1.25223e-08 -3.79361e-09 10.2786 0.731801 0.0259123 -1.12135e-09 -1.25223e-08 -3.79359e-09 2.22167 -0.733487 -0.20892 -5.81089e-14 -6.81131e-13 -5.61619e-13 -30.1081 29.7504 -6.91112 -17.9478 4.77549 84.4971 0.0070292 -5.06868 0.71215 -4.60388e-10 -2.48278e-11 3.34476e-10 -7.81737e-10 -4.27844e-11 5.72673e-10 -4.60395e-10 -2.48259e-11 3.34487e-10 -7.73091 5.47488 -0.417314 -4.60389e-10 -2.48302e-11 3.34474e-10 -2.90554 0.965183 -0.102902 -4.60392e-10 -2.48296e-11 3.34473e-10 -10.2786 0.731801 -0.0259123 -4.60382e-10 -2.48261e-11 3.34464e-10 -2.22167 -0.733487 0.20892 -2.03217e-16 0.0 -3.88251e-19 0.0191548 -16.2162 -2.21527 -0.0476692 10.8364 0.163996 -2.28187 -4.03627 -11.4786 2.03217e-16 0.0 3.88251e-19 2.67313 -24.1359 -13.1154 -0.0188096 16.9232 -0.187448 0.971822 -3.25322 7.49402
-6.6961 82.3869 6.66263 -172.955 68.7501 -155.507 -1.75239 -3.50996 8.05076 -0.767532 -8.13491 2.4214 -3.5599 2.62762 2.98872 12.1518 -9.69727 8.30257 -0.0 0.0 0.0 -0.0 0.0 0.0 -7.60396e-14 -9.73613e-13 -7.91441e-13 16.7575 51.5179 41.8787 22.4239 -23.0858 -101.857 -0.000205106 -0.461872 -0.0649129 -1.52045e-09 -1.76782e-08 -5.34188e-09 -2.61529e-09 -3.05554e-08 -9.24151e-09 -1.52045e-09 -1.76782e-08 -5.3419e-09 7.73091 5.47488 0.417314 -1.52045e-09 -1.76782e-08 -5.34188e-09 2.90554 0.965183 0.102902 -1.52045e-09 -1.76782e-08 -5.34188e-09 10.2786 0.731801 0.0259123 -1.52046e-09 -1.76782e-08 -5.34186e-09 2.22167 -0.733487 -0.20892 -7.61296e-14 -9.73618e-13 -7.91729e-13 -40.6359 43.0336 -12.0181 -22.64 -26.1475 106.545 0.0528036 -7.39867 1.04422 -5.83656e-10 -3.46624e-11 4.63561e-10 -9.89086e-10 -5.97465e-11 7.93457e-10 -5.83664e-10 -3.46592e-11 4.63571e-10 -7.73091 5.47488 -0.417314 -5.83658e-10 -3.46657e-11 4.63558e-10 -2.90554 0.965183 -0.102902 -5.83661e-10 -3.4665e-11 4.63559e-10 -10.2786 0.731801 -0.0259123 -5.83652e-10 -3.46617e-11 4.63552e-10 -2.22167 -0.733487 0.20892 -2.03217e-16 0.0 -3.88251e-19 0.278445 -22.5765 -3.26846 -0.101824 16.6392 0.279339 -4.2152 -7.50349 -17.0016 2.03217e-16 0.0 3.88251e-19 2.1313 -30.4546 -20.5129 -0.0209398 20.3413 -0.200314 1.35881 -4.18027 10.9805
-6.0751 82.7358 6.26662 -173.735 68.6957 -156.95 -1.3678 -4.44497 9.8292 -0.690293 -9.8581 2.98749 -4.33001 3.2248 3.63777 15.0984 -11.6281 10.14 -0.0 0.0 0.0 -0.0 0.0 0.0 -8.48661e-14 -1.10584e-12 -8.52289e-13 5.4842 55.5878 62.4066 23.7499 -49.7122 -104.066 -0.000378125 -0.555243 -0.0780368 -1.64343e-09 -1.915e-08 -5.7242e-09 -2.82731e-09 -3.30988e-08 -9.90244e-09 -1.64343e-09 -1.915e-08 -5.72422e-09 7.73091 5.47488 0.417314 -1.64343e-09 -1.915e-08 -5.7242e-09 2.90554 0.965183 0.102902 -1.64342e-09 -1.915e-08 -5.7242e-09 10.2786 0.731801 0.0259123 -1.64343e-09 -1.915e-08 -5.72418e-09 2.22167 -0.733487 -0.20892 -8.49513e-14 -1.10584e-12 -8.52587e-13 -45.5052 51.9891 -17.5655 -19.9858 -53.3595 114.249 0.101503 -9.04941 1.2826 -6.12951e-10 -3.59244e-11 4.69666e-10 -1.03792e-09 -6.1989e-11 8.02969e-10 -6.12961e-10 -3.59208e-11 4.69676e-10 -7.73091 5.47488 -0.417314 -6.12955e-10 -3.59283e-11 4.69663e-10 -2.90554 0.965183 -0.102902 -6.12957e-10 -3.59277e-11 4.69665e-10 -10.2786 0.731801 -0.0259123 -6.12949e-10 -3.59248e-11 4.6966e-10 -2.22167 -0.733487 0.20892 -2.03217e-16 0.0 -3.88251e-19 0.397418 -26.3872 -3.70931 -0.151336 20.2598 0.362695 -6.06685 -9.75218 -21.2736 2.03217e-16 0.0 3.88251e-19 0.573986 -33.7599 -26.3554 -0.0183273 22.3832 -0.204322 1.66513 -4.68968 13.4971
-5.50552 83.0564 5.9296 -174.378 68.5584 -158.302 -0.97701 -5.16276 10.5215 -0.65309 -10.4134 3.20406 -4.5495 3.50931 3.87457 16.0956 -12.1399 10.7636 -0.0 0.0 0.0 -0.0 0.0 0.0 -8.27033e-14 -1.00041e-12 -6.29918e-13 -0.0455032 55.4671 71.184 26.0654 -60.4648 -100.866 -0.00046477 -0.53141 -0.074689 -1.31211e-09 -1.45398e-08 -4.15706e-09 -2.25937e-09 -2.51294e-08 -7.1899e-09 -1.31211e-09 -1.45399e-08 -4.15707e-09 7.73091 5.47488 0.417314 -1.31211e-09 -1.45399e-08 -4.15706e-09 2.90554 0.965183 0.102902 -1.3121e-09 -1.45398e-08 -4.15705e-09 10.2786 0.731801 0.0259123 -1.31211e-09 -1.45398e-08 -4.15704e-09 2.22167 -0.733487 -0.20892 -8.27795e-14 -1.00041e-12 -6.30201e-13 -46.1836 55.4755 -20.682 -17.8743 -64.5829 116.141 0.125735 -9.74849 1.38445 -4.89221e-10 -2.26973e-11 2.65386e-10 -8.28694e-10 -3.93957e-11 4.50852e-10 -4.89232e-10 -2.26949e-11 2.65396e-10 -7.73091 5.47488 -0.417314 -4.89226e-10 -2.27021e-11 2.65385e-10 -2.90554 0.965183 -0.102902 -4.89229e-10 -2.27017e-11 2.65388e-10 -10.2786 0.731801 -0.0259123 -4.8922e-10 -2.26995e-11 2.65385e-10 -2.22167 -0.733487 0.20892 -2.03217e-16 0.0 -3.88251e-19 0.641076 -26.5702 -3.10496 -0.166339 20.7404 0.389251 -7.09889 -10.5264 -23.6815 2.03217e-16 0.0 3.88251e-19 -0.233646 -33.8185 -28.7625 -0.00895036 22.557 -0.195051 1.74498 -4.67009 14.6627
-4.96281 83.2984 5.66164 -174.584 68.2957 -159.306 -0.615099 -5.73152 10.4349 -0.661721 -10.1366 3.16679 -4.36887 3.57066 3.81655 15.6398 -11.6535 10.5039 -0.0 0.0 0.0 -0.0 0.0 0.0 -7.26012e-14 -7.25855e-13 -2.0745e-13 0.190557 55.1263 70.522 25.714 -59.2358 -101.309 -0.000510172 -0.426074 -0.0598874 -6.59517e-10 -5.62941e-09 -1.21254e-09 -1.13984e-09 -9.72687e-09 -2.0939e-09 -6.59517e-10 -5.62942e-09 -1.21255e-09 7.73091 5.47488 0.417314 -6.59517e-10 -5.62942e-09 -1.21255e-09 2.90554 0.965183 0.102902 -6.59514e-10 -5.62941e-09 -1.21254e-09 10.2786 0.731801 0.0259123 -6.59522e-10 -5.62941e-09 -1.21254e-09 2.22167 -0.733487 -0.20892 -7.26654e-14 -7.25857e-13 -2.07702e-13 -45.4268 55.3198 -20.6633 -18.2178 -63.2959 115.817 0.125432 -9.76811 1.38721 -2.5721e-10 7.60496e-13 -8.73484e-11 -4.36867e-10 7.36104e-13 -1.56437e-10 -2.57222e-10 7.60725e-13 -8.73372e-11 -7.73091 5.47488 -0.417314 -2.57215e-10 7.55033e-13 -8.73464e-11 -2.90554 0.965183 -0.102902 -2.57219e-10 7.5495e-13 -8.73435e-11 -10.2786 0.731801 -0.0259123 -2.5721e-10 7.56253e-13 -8.73448e-11 -2.22167 -0.733487 0.20892 -2.03217e-16 0.0 -3.88251e-19 0.906101 -24.1542 -1.78125 -0.151811 18.9823 0.373267 -7.36368 -10.3395 -24.7129 2.03217e-16 0.0 3.88251e-19 -0.0922893 -31.8339 -28.5018 0.00565425 21.3936 -0.17639 1.6368 -4.28244 14.8605
-4.46046 83.4241 5.39068 -175.099 68.0967 -160.582 -0.350952 -6.20349 10.022 -0.686149 -9.55548 3.02554 -4.03331 3.52832 3.64727 14.6388 -10.7647 9.91476 -0.0 0.0 0.0 -0.0 0.0 0.0 -5.63051e-14 -4.04916e-13 2.2099e-13 2.56835 54.7382 66.2626 24.3446 -53.2094 -103.153 -0.000487081 -0.362571 -0.050963 1.32389e-11 3.52239e-09 1.77552e-09 1.46999e-11 6.09281e-09 3.07721e-09 1.32402e-11 3.52239e-09 1.77551e-09 7.73091 5.47488 0.417314 1.32409e-11 3.52239e-09 1.77551e-09 2.90554 0.965183 0.102902 1.32415e-11 3.52239e-09 1.77552e-09 10.2786 0.731801 0.0259123 1.32345e-11 3.5224e-09 1.77552e-09 2.22167 -0.733487 -0.20892 -5.63582e-14 -4.04915e-13 2.20772e-13 -44.2045 53.6906 -19.3157 -19.4727 -57.0038 114.674 0.11499 -9.51823 1.35056 -1.62281e-11 2.43311e-11 -4.38325e-10 -2.98038e-11 4.11177e-11 -7.60433e-10 -1.62408e-11 2.43291e-11 -4.38312e-10 -7.73091 5.47488 -0.417314 -1.6233e-11 2.43253e-11 -4.3832e-10 -2.90554 0.965183 -0.102902 -1.62377e-11 2.43248e-11 -4.38317e-10 -10.2786 0.731801 -0.0259123 -1.62281e-11 2.43251e-11 -4.38317e-10 -2.22167 -0.733487 0.20892 -2.03217e-16 0.0 -3.88251e-19 0.972236 -20.8059 -0.298538 -0.128909 16.4648 0.344182 -7.30385 -9.82529 -25.1438 2.03217e-16 0.0 3.88251e-19 0.303137 -29.0125 -27.2958 0.0204432 19.6015 -0.153716 1.43458 -3.72078 14.6431
-3.98883 83.5239 5.12948 -175.738 67.9057 -162.009 -0.233592 -6.62723 9.73749 -0.698055 -9.19766 2.92954 -3.78913 3.50168 3.55044 13.9812 -10.0738 9.54349 -0.0 0.0 0.0 -0.0 0.0 0.0 -3.55602e-14 -1.60321e-13 4.6128e-13 3.64973 54.2819 63.9874 23.8602 -49.5747 -103.724 -0.00026432 -0.464238 -0.0652458 4.05053e-10 8.85669e-09 3.4733e-09 6.87663e-10 1.53137e-08 6.01503e-09 4.05055e-10 8.85669e-09 3.4733e-09 7.73091 5.47488 0.417314 4.05056e-10 8.85668e-09 3.47329e-09 2.90554 0.965183 0.102902 4.05056e-10 8.85669e-09 3.4733e-09 10.2786 0.731801 0.0259123 4.05049e-10 8.8567e-09 3.4733e-09 2.22167 -0.733487 -0.20892 -3.56071e-14 -1.60319e-13 4.61081e-13 -43.2773 52.7155 -18.6346 -20.1242 -53.2525 113.912 0.10982 -9.40878 1.33445 1.34415e-10 3.78963e-11 -6.37329e-10 2.25129e-10 6.44603e-11 -1.10268e-09 1.34402e-10 3.78931e-11 -6.37316e-10 -7.73091 5.47488 -0.417314 1.3441e-10 3.78909e-11 -6.37323e-10 -2.90554 0.965183 -0.102902 1.34405e-10 3.78901e-11 -6.3732e-10 -10.2786 0.731801 -0.0259123 1.34414e-10 3.78899e-11 -6.3732e-10 -2.22167 -0.733487 0.20892 -2.03217e-16 0.0 -3.88251e-19 0.858195 -18.2162 0.895423 -0.114594 14.6674 0.329035 -7.41705 -9.58045 -25.758 2.03217e-16 0.0 3.88251e-19 0.455448 -26.5904 -26.6737 0.0291508 17.8887 -0.131777 1.22544 -3.17969 14.5617
